<svg width="40" height="40" viewBox="0 0 40 40" fill="none" xmlns="http://www.w3.org/2000/svg">
<path d="M32.372 22.8531C31.867 22.8531 31.3826 23.0538 31.0255 23.4111C30.6684 23.7684 30.4678 24.253 30.4678 24.7583V25.4823L27.6495 22.6625C26.6544 21.6748 25.3094 21.1205 23.9077 21.1205C22.5059 21.1205 21.161 21.6748 20.1659 22.6625L18.8329 23.9962L14.1104 19.2713C13.1014 18.3103 11.7616 17.7743 10.3686 17.7743C8.97549 17.7743 7.63576 18.3103 6.62674 19.2713L3.80847 22.091V11.4218C3.80847 10.9165 4.0091 10.4319 4.36621 10.0746C4.72332 9.7173 5.20767 9.51657 5.71271 9.51657H19.0424C19.5474 9.51657 20.0317 9.31584 20.3889 8.95855C20.746 8.60125 20.9466 8.11665 20.9466 7.61136C20.9466 7.10606 20.746 6.62146 20.3889 6.26417C20.0317 5.90687 19.5474 5.70614 19.0424 5.70614H5.71271C4.1976 5.70614 2.74455 6.30832 1.67321 7.38022C0.601873 8.45211 0 9.9059 0 11.4218V34.2844C0 35.8002 0.601873 37.254 1.67321 38.3259C2.74455 39.3978 4.1976 40 5.71271 40H28.5635C30.0786 40 31.5317 39.3978 32.603 38.3259C33.6744 37.254 34.2762 35.8002 34.2762 34.2844V24.7583C34.2762 24.253 34.0756 23.7684 33.7185 23.4111C33.3614 23.0538 32.877 22.8531 32.372 22.8531ZM5.71271 36.1896C5.20767 36.1896 4.72332 35.9888 4.36621 35.6315C4.0091 35.2743 3.80847 34.7897 3.80847 34.2844V27.4827L9.33076 21.9576C9.61051 21.6909 9.98213 21.5421 10.3686 21.5421C10.755 21.5421 11.1266 21.6909 11.4064 21.9576L17.4428 27.9971L25.631 36.1896H5.71271ZM30.4678 34.2844C30.465 34.6491 30.3448 35.0032 30.125 35.2941L21.5369 26.6635L22.8699 25.3298C23.0064 25.1904 23.1693 25.0797 23.3492 25.0041C23.529 24.9285 23.7221 24.8895 23.9172 24.8895C24.1123 24.8895 24.3054 24.9285 24.4852 25.0041C24.6651 25.0797 24.828 25.1904 24.9645 25.3298L30.4678 30.874V34.2844ZM39.4367 6.25865L33.724 0.543012C33.5429 0.36956 33.3294 0.233594 33.0956 0.142917C32.632 -0.0476389 32.112 -0.0476389 31.6484 0.142917C31.4147 0.233594 31.2011 0.36956 31.02 0.543012L25.3073 6.25865C24.9487 6.61741 24.7473 7.10399 24.7473 7.61136C24.7473 8.11872 24.9487 8.6053 25.3073 8.96406C25.6659 9.32282 26.1522 9.52437 26.6593 9.52437C27.1664 9.52437 27.6527 9.32282 28.0113 8.96406L30.4678 6.48728V17.1374C30.4678 17.6427 30.6684 18.1273 31.0255 18.4846C31.3826 18.8419 31.867 19.0426 32.372 19.0426C32.877 19.0426 33.3614 18.8419 33.7185 18.4846C34.0756 18.1273 34.2762 17.6427 34.2762 17.1374V6.48728L36.7327 8.96406C36.9097 9.14263 37.1203 9.28437 37.3524 9.38109C37.5844 9.47782 37.8333 9.52762 38.0847 9.52762C38.3361 9.52762 38.585 9.47782 38.817 9.38109C39.0491 9.28437 39.2597 9.14263 39.4367 8.96406C39.6152 8.78694 39.7569 8.57623 39.8536 8.34406C39.9502 8.11189 40 7.86287 40 7.61136C40 7.35985 39.9502 7.11082 39.8536 6.87866C39.7569 6.64649 39.6152 6.43577 39.4367 6.25865Z" fill="#EB2563"/>
</svg>
